<?xml version="1.0" encoding="utf-8"?>
<!-- Generator: Adobe Illustrator 16.0.0, SVG Export Plug-In . SVG Version: 6.00 Build 0)  -->
<!DOCTYPE svg PUBLIC "-//W3C//DTD SVG 1.1//EN" "http://www.w3.org/Graphics/SVG/1.1/DTD/svg11.dtd">
<svg version="1.1" id="レイヤー_1" xmlns="http://www.w3.org/2000/svg" xmlns:xlink="http://www.w3.org/1999/xlink" x="0px"
	 y="0px" width="328.792px" height="111.972px" viewBox="0 0 328.792 111.972" enable-background="new 0 0 328.792 111.972"
	 xml:space="preserve">
<rect y="3" fill="#FFFFFF" width="328.483" height="107.972"/>
<g>
	<polyline fill="none" stroke="#231815" stroke-width="0.75" stroke-miterlimit="10" points="216.199,95.872 216.199,102.251 
		178.994,102.251 178.994,95.872 	"/>
	<rect x="209.691" y="100.655" fill="#FFFFFF" width="3.98" height="3.189"/>
</g>
<g>
	<polyline fill="none" stroke="#231815" stroke-width="0.75" stroke-miterlimit="10" points="188.029,63.983 188.029,70.36 
		150.824,70.36 150.824,63.983 	"/>
	<rect x="181.519" y="68.767" fill="#FFFFFF" width="3.984" height="3.189"/>
</g>
<polyline fill="none" stroke="#231815" stroke-width="0.75" stroke-miterlimit="10" points="69.417,38.561 69.417,44.407 
	32.213,36.434 32.213,30.588 "/>
<g>
	<g>
		
			<line fill="none" stroke="#231815" stroke-width="0.75" stroke-miterlimit="10" x1="155.076" y1="43.167" x2="155.076" y2="54.727"/>
		<g>
			<polygon fill="#231815" points="153.986,53.983 155.076,58.049 156.166,53.983 			"/>
		</g>
	</g>
</g>
<circle fill="#231815" cx="63.306" cy="39.624" r="1.86"/>
<circle fill="#231815" cx="182.981" cy="66.374" r="1.86"/>
<circle fill="#231815" cx="212.745" cy="98.265" r="1.86"/>
<circle fill="#231815" cx="183.512" cy="98.796" r="1.86"/>
<circle fill="#231815" cx="155.343" cy="66.374" r="1.86"/>
<text transform="matrix(1 0 0 1 131.1597 27.3096)" fill="#040000" font-family="'KozGoPr6N-Regular-90ms-RKSJ-H'" font-size="7">拡散</text>
<text transform="matrix(1 0 0 1 44.0811 30.853)" fill="#040000" font-family="'KozGoPr6N-Regular-90ms-RKSJ-H'" font-size="7">拡散</text>
<g>
	<g>
		
			<line fill="none" stroke="#231815" stroke-width="0.75" stroke-miterlimit="10" x1="93.867" y1="79.485" x2="93.867" y2="91.046"/>
		<g>
			<polygon fill="#231815" points="92.777,90.302 93.867,94.368 94.956,90.302 			"/>
		</g>
	</g>
</g>
<g>
	<g>
		
			<line fill="none" stroke="#231815" stroke-width="0.75" stroke-miterlimit="10" x1="91.209" y1="90.115" x2="91.209" y2="84.934"/>
		<g>
			<polygon fill="#231815" points="92.299,85.677 91.209,81.611 90.12,85.677 			"/>
		</g>
	</g>
</g>
<g>
	<g>
		
			<line fill="none" stroke="#231815" stroke-width="0.75" stroke-miterlimit="10" x1="65.166" y1="47.595" x2="65.166" y2="59.155"/>
		<g>
			<polygon fill="#231815" points="64.077,58.412 65.166,62.478 66.255,58.412 			"/>
		</g>
	</g>
</g>
<g>
	<g>
		
			<line fill="none" stroke="#231815" stroke-width="0.75" stroke-miterlimit="10" x1="62.509" y1="58.225" x2="62.509" y2="53.043"/>
		<g>
			<polygon fill="#231815" points="63.598,53.787 62.509,49.721 61.419,53.787 			"/>
		</g>
	</g>
</g>
<g>
	<g>
		
			<line fill="none" stroke="#231815" stroke-width="0.75" stroke-miterlimit="10" x1="152.951" y1="54.328" x2="152.951" y2="49.146"/>
		<g>
			<polygon fill="#231815" points="154.041,49.89 152.951,45.824 151.861,49.89 			"/>
		</g>
	</g>
</g>
<g>
	<g>
		
			<line fill="none" stroke="#231815" stroke-width="0.75" stroke-miterlimit="10" x1="181.121" y1="86.749" x2="181.121" y2="81.567"/>
		<g>
			<polygon fill="#231815" points="182.21,82.311 181.121,78.245 180.031,82.311 			"/>
		</g>
	</g>
</g>
<text transform="matrix(1 0 0 1 67.8228 56.6304)" fill="#040000" font-family="'KozGoPr6N-Regular-90ms-RKSJ-H'" font-size="7">遷移</text>
<g>
	<g>
		
			<line fill="none" stroke="#231815" stroke-width="0.75" stroke-miterlimit="10" x1="183.777" y1="75.056" x2="183.777" y2="86.616"/>
		<g>
			<polygon fill="#231815" points="182.687,85.873 183.777,89.938 184.867,85.873 			"/>
		</g>
	</g>
</g>
<g>
	<g>
		<path fill="none" stroke="#231815" stroke-width="0.75" stroke-miterlimit="10" d="M131.159,33.155l3.189-1.594l2.658,2.126
			l2.127-1.595l3.188,0.531l0.533-1.063l2.125,1.594c0,0,0.531,0,1.063-0.531c0.229-0.228,1.332-0.357,2.521-0.432"/>
		<g>
			<polygon fill="#231815" points="147.867,33.337 151.889,32.093 147.783,31.16 			"/>
		</g>
	</g>
</g>
<g>
	<g>
		<path fill="none" stroke="#231815" stroke-width="0.75" stroke-miterlimit="10" d="M159.861,67.172l3.189-1.595l2.656,2.127
			l2.125-1.595l3.189,0.531l0.531-1.063l2.127,1.595c0,0,0.531,0,1.063-0.531c0.227-0.228,1.332-0.357,2.52-0.432"/>
		<g>
			<polygon fill="#231815" points="176.568,67.354 180.587,66.109 176.484,65.177 			"/>
		</g>
	</g>
</g>
<g>
	<g>
		<path fill="none" stroke="#231815" stroke-width="0.75" stroke-miterlimit="10" d="M39.034,33.688l2.864,2.124l2.986-1.632
			l1.816,1.938l3.232,0.03l0.339,1.139l2.37-1.201c0,0,0.523,0.093,0.956,0.708c0.185,0.264,1.249,0.583,2.406,0.863"/>
		<g>
			<polygon fill="#231815" points="55.058,38.537 59.261,38.331 55.518,36.407 			"/>
		</g>
	</g>
</g>
<g>
	<g>
		<path fill="none" stroke="#231815" stroke-width="0.75" stroke-miterlimit="10" d="M68.089,66.691l2.864,2.124l2.986-1.633
			l1.816,1.938l3.232,0.03l0.339,1.139l2.37-1.201c0,0,0.523,0.094,0.956,0.708c0.185,0.264,1.249,0.583,2.406,0.863"/>
		<g>
			<polygon fill="#231815" points="84.113,71.541 88.316,71.335 84.573,69.411 			"/>
		</g>
	</g>
</g>
<g>
	<g>
		<path fill="none" stroke="#231815" stroke-width="0.75" stroke-miterlimit="10" d="M97.378,98.972l2.864,2.124l2.986-1.632
			l1.816,1.938l3.232,0.031l0.339,1.139l2.37-1.201c0,0,0.523,0.093,0.956,0.707c0.185,0.264,1.249,0.584,2.406,0.863"/>
		<g>
			<polygon fill="#231815" points="113.402,103.821 117.606,103.616 113.862,101.692 			"/>
		</g>
	</g>
</g>
<polyline fill="none" stroke="#231815" stroke-width="0.75" stroke-miterlimit="10" points="97.056,71.425 97.056,77.271 
	59.852,69.298 59.852,63.452 "/>
<polyline fill="none" stroke="#231815" stroke-width="0.75" stroke-miterlimit="10" points="126.553,103.313 126.553,109.159 
	89.349,101.188 89.349,95.341 "/>
<g>
	<g>
		<path fill="none" stroke="#231815" stroke-width="0.75" stroke-miterlimit="10" d="M189.091,99.062l3.191-1.595l2.656,2.126
			l2.125-1.594l3.189,0.531l0.531-1.063l2.127,1.595c0,0,0.531,0,1.063-0.531c0.227-0.229,1.332-0.357,2.52-0.432"/>
		<g>
			<polygon fill="#231815" points="205.8,99.243 209.82,97.999 205.716,97.065 			"/>
		</g>
	</g>
</g>
<g>
	<polyline fill="none" stroke="#231815" stroke-width="0.75" stroke-miterlimit="10" points="158.796,29.436 158.796,35.813 
		121.593,35.813 121.593,29.436 	"/>
	<rect x="152.287" y="34.219" fill="#FFFFFF" width="3.984" height="3.189"/>
</g>
<rect x="62.778" y="42.281" fill="#FFFFFF" width="3.981" height="3.188"/>
<rect x="91.209" y="74.613" fill="#FFFFFF" width="3.981" height="3.188"/>
<rect x="120.976" y="107.034" fill="#FFFFFF" width="3.983" height="3.189"/>
<circle fill="#231815" cx="154.013" cy="32.625" r="1.86"/>
<circle fill="#231815" cx="126.376" cy="32.625" r="1.86"/>
<circle fill="#231815" cx="34.604" cy="32.979" r="1.86"/>
<circle fill="#231815" cx="62.773" cy="65.843" r="1.86"/>
<circle fill="#231815" cx="92.802" cy="98.795" r="1.86"/>
<g>
	<g>
		<polyline fill="none" stroke="#231815" stroke-width="0.75" stroke-miterlimit="10" points="294.036,54.948 294.036,61.325 
			256.831,69.298 256.831,62.92 		"/>
		<rect x="287.526" y="60.794" fill="#FFFFFF" width="3.982" height="3.189"/>
	</g>
	<g>
		<polyline fill="none" stroke="#231815" stroke-width="0.75" stroke-miterlimit="10" points="322.737,88.255 322.737,94.632 
			285.53,102.604 285.53,96.228 		"/>
		<rect x="316.227" y="94.101" fill="#FFFFFF" width="3.982" height="3.189"/>
	</g>
	<g>
		<polyline fill="none" stroke="#231815" stroke-width="0.75" stroke-miterlimit="10" points="264.272,22.438 264.272,28.816 
			227.065,36.788 227.065,30.41 		"/>
		<rect x="257.762" y="28.284" fill="#FFFFFF" width="3.982" height="3.189"/>
	</g>
	<text transform="matrix(1 0 0 1 234.8628 25.626)" fill="#040000" font-family="'KozGoPr6N-Regular-90ms-RKSJ-H'" font-size="7">拡散</text>
	<g>
		<g>
			
				<line fill="none" stroke="#231815" stroke-width="0.75" stroke-miterlimit="10" x1="261.612" y1="39.357" x2="261.612" y2="50.917"/>
			<g>
				<polygon fill="#231815" points="260.522,50.173 261.612,54.239 262.702,50.173 				"/>
			</g>
		</g>
	</g>
	<g>
		<g>
			
				<line fill="none" stroke="#231815" stroke-width="0.75" stroke-miterlimit="10" x1="259.487" y1="50.519" x2="259.487" y2="45.337"/>
			<g>
				<polygon fill="#231815" points="260.577,46.08 259.487,42.015 258.397,46.08 				"/>
			</g>
		</g>
	</g>
	<g>
		<g>
			
				<line fill="none" stroke="#231815" stroke-width="0.75" stroke-miterlimit="10" x1="290.313" y1="73.372" x2="290.313" y2="84.933"/>
			<g>
				<polygon fill="#231815" points="289.223,84.188 290.313,88.255 291.403,84.188 				"/>
			</g>
		</g>
	</g>
	<g>
		<g>
			
				<line fill="none" stroke="#231815" stroke-width="0.75" stroke-miterlimit="10" x1="288.188" y1="84.534" x2="288.188" y2="79.353"/>
			<g>
				<polygon fill="#231815" points="289.278,80.096 288.188,76.03 287.098,80.096 				"/>
			</g>
		</g>
	</g>
	<g>
		<g>
			<path fill="none" stroke="#231815" stroke-width="0.75" stroke-miterlimit="10" d="M235.448,33.068l2.684-2.347l3.107,1.387
				l1.654-2.079l3.219-0.291l0.246-1.163l2.459,1.006c0,0,0.516-0.134,0.896-0.782c0.162-0.277,1.197-0.682,2.328-1.054"/>
			<g>
				<polygon fill="#231815" points="251.659,29.03 255.235,26.811 251.028,26.944 				"/>
			</g>
		</g>
	</g>
	<g>
		<g>
			<path fill="none" stroke="#231815" stroke-width="0.75" stroke-miterlimit="10" d="M265.866,65.457l2.684-2.348l3.107,1.388
				l1.654-2.08l3.219-0.29l0.246-1.163l2.459,1.008c0,0,0.516-0.135,0.896-0.783c0.163-0.277,1.197-0.682,2.328-1.053"/>
			<g>
				<polygon fill="#231815" points="282.077,61.419 285.653,59.2 281.446,59.333 				"/>
			</g>
		</g>
	</g>
	<g>
		<g>
			<path fill="none" stroke="#231815" stroke-width="0.75" stroke-miterlimit="10" d="M294.036,98.884l2.684-2.347l3.107,1.388
				l1.654-2.08l3.219-0.29l0.246-1.163l2.459,1.008c0,0,0.516-0.135,0.896-0.783c0.162-0.277,1.197-0.682,2.328-1.053"/>
			<g>
				<polygon fill="#231815" points="310.247,94.847 313.823,92.628 309.616,92.761 				"/>
			</g>
		</g>
	</g>
	<circle fill="#231815" cx="259.753" cy="25.893" r="1.86"/>
	<circle fill="#231815" cx="230.521" cy="32.802" r="1.86"/>
	<circle fill="#231815" cx="288.72" cy="58.934" r="1.86"/>
	<circle fill="#231815" cx="260.816" cy="65.312" r="1.86"/>
	<circle fill="#231815" cx="289.517" cy="98.087" r="1.86"/>
	<circle fill="#231815" cx="317.687" cy="92.24" r="1.86"/>
</g>
<circle fill="#231815" cx="93.335" cy="73.019" r="1.86"/>
<circle fill="#231815" cx="123.099" cy="105.972" r="1.86"/>
<line fill="none" stroke="#231815" stroke-width="0.5" stroke-miterlimit="10" stroke-dasharray="2" x1="30.404" y1="32.979" x2="323.479" y2="32.979"/>
<line fill="none" stroke="#231815" stroke-width="0.5" stroke-miterlimit="10" stroke-dasharray="2" x1="30.404" y1="65.932" x2="323.479" y2="65.932"/>
<line fill="none" stroke="#231815" stroke-width="0.5" stroke-miterlimit="10" stroke-dasharray="2" x1="80.406" y1="98.884" x2="323.479" y2="98.884"/>
<g>
	<g>
		
			<line fill="none" stroke="#231815" stroke-width="0.75" stroke-miterlimit="10" x1="22.735" y1="37.088" x2="22.735" y2="62.887"/>
		<g>
			<polygon fill="#231815" points="20.865,37.635 22.735,34.397 24.604,37.635 			"/>
		</g>
		<g>
			<polygon fill="#231815" points="20.865,62.34 22.735,65.577 24.604,62.34 			"/>
		</g>
	</g>
</g>
<g>
	<g>
		
			<line fill="none" stroke="#231815" stroke-width="0.75" stroke-miterlimit="10" x1="22.735" y1="70.395" x2="22.735" y2="96.193"/>
		<g>
			<polygon fill="#231815" points="20.865,70.941 22.735,67.704 24.604,70.941 			"/>
		</g>
		<g>
			<polygon fill="#231815" points="20.865,95.646 22.735,98.884 24.604,95.646 			"/>
		</g>
	</g>
</g>
<text transform="matrix(1 0 0 1 4.2158 52.1128)"><tspan x="0" y="0" fill="#040000" font-family="'cmr10'" font-size="10">Δ</tspan><tspan x="8.33" y="0" fill="#040000" font-family="'cmmi10'" font-size="10">μ</tspan></text>
<text transform="matrix(1 0 0 1 4.2158 84.002)"><tspan x="0" y="0" fill="#040000" font-family="'cmr10'" font-size="10">Δ</tspan><tspan x="8.33" y="0" fill="#040000" font-family="'cmmi10'" font-size="10">μ</tspan></text>
<text transform="matrix(1 0 0 1 50.8672 14.3179)" font-family="'ArialMT'" font-size="10">f0 &gt; 0</text>
<text transform="matrix(1 0 0 1 146.6875 14.3179)" font-family="'ArialMT'" font-size="10">f0 = 0</text>
<text transform="matrix(1 0 0 1 238.2671 14.3179)" font-family="'ArialMT'" font-size="10">f0 &lt; 0</text>
</svg>
