<?xml version="1.0" encoding="utf-8"?>
<!-- Generator: Adobe Illustrator 16.0.0, SVG Export Plug-In . SVG Version: 6.00 Build 0)  -->
<!DOCTYPE svg PUBLIC "-//W3C//DTD SVG 1.1//EN" "http://www.w3.org/Graphics/SVG/1.1/DTD/svg11.dtd">
<svg version="1.1" id="レイヤー_1" xmlns="http://www.w3.org/2000/svg" xmlns:xlink="http://www.w3.org/1999/xlink" x="0px"
	 y="0px" width="329.333px" height="132.666px" viewBox="0 0 329.333 132.666" enable-background="new 0 0 329.333 132.666"
	 xml:space="preserve">
<rect y="1.708" fill="#FFFFFF" width="325.87" height="127.066"/>
<rect x="61.684" y="36.249" fill="#DCDDDD" width="189.92" height="19.842"/>
<g>
	<path fill="#9FA0A0" d="M107.039,33.745c0-3.313-2.687-6-6-6H84.692c-3.313,0-6,2.687-6,6v24.851c0,3.313,2.687,6,6,6h16.347
		c3.313,0,6-2.688,6-6V33.745z"/>
	<line fill="none" stroke="#FFFFFF" stroke-miterlimit="10" x1="92.866" y1="64.596" x2="92.866" y2="27.745"/>
	<path fill="#FFFFFF" d="M101.37,46.17c0-2.348-1.904-4.252-4.252-4.252h-8.504c-2.349,0-4.252,1.904-4.252,4.252l0,0
		c0,2.347,1.903,4.251,4.252,4.251h8.504C99.466,50.421,101.37,48.517,101.37,46.17L101.37,46.17z"/>
</g>
<g>
	<path fill="#9FA0A0" d="M192.078,33.745c0-3.313-2.687-6-6-6h-16.347c-3.313,0-6,2.687-6,6v24.851c0,3.313,2.687,6,6,6h16.347
		c3.313,0,6-2.688,6-6V33.745z"/>
	<line fill="none" stroke="#FFFFFF" stroke-miterlimit="10" x1="177.905" y1="64.596" x2="177.905" y2="27.745"/>
	<path fill="#FFFFFF" d="M186.409,46.17c0-2.348-1.904-4.252-4.252-4.252h-8.504c-2.349,0-4.252,1.904-4.252,4.252l0,0
		c0,2.347,1.903,4.251,4.252,4.251h8.504C184.505,50.421,186.409,48.517,186.409,46.17L186.409,46.17z"/>
</g>
<g>
	<g>
		<path fill="#9FA0A0" d="M234.598,33.745c0-3.313-2.687-6-6-6h-16.347c-3.313,0-6,2.687-6,6v24.851c0,3.313,2.687,6,6,6h16.347
			c3.313,0,6-2.688,6-6V33.745z"/>
		<line fill="none" stroke="#FFFFFF" stroke-miterlimit="10" x1="220.425" y1="64.596" x2="220.425" y2="27.745"/>
		<path fill="#FFFFFF" d="M228.929,46.17c0-2.348-1.904-4.252-4.252-4.252h-8.504c-2.349,0-4.252,1.904-4.252,4.252l0,0
			c0,2.347,1.903,4.251,4.252,4.251h8.504C227.024,50.421,228.929,48.517,228.929,46.17L228.929,46.17z"/>
	</g>
	<polygon fill="#FFFFFF" points="214.755,27.745 220.425,50.421 226.093,27.745 	"/>
</g>
<g>
	<g>
		<path fill="#9FA0A0" d="M149.558,33.745c0-3.313-2.687-6-6-6h-16.347c-3.313,0-6,2.687-6,6v24.851c0,3.313,2.687,6,6,6h16.347
			c3.313,0,6-2.688,6-6V33.745z"/>
		<line fill="none" stroke="#FFFFFF" stroke-miterlimit="10" x1="135.385" y1="64.596" x2="135.385" y2="27.745"/>
		<path fill="#FFFFFF" d="M143.889,46.17c0-2.348-1.903-4.252-4.252-4.252h-8.504c-2.349,0-4.252,1.904-4.252,4.252l0,0
			c0,2.347,1.903,4.251,4.252,4.251h8.504C141.986,50.421,143.889,48.517,143.889,46.17L143.889,46.17z"/>
	</g>
	<polygon fill="#FFFFFF" points="141.054,64.596 135.384,41.918 129.716,64.596 	"/>
</g>
<g>
	<g>
		
			<line fill="none" stroke="#000000" stroke-width="0.75" stroke-miterlimit="10" x1="111.147" y1="46.752" x2="117.104" y2="46.752"/>
		<g>
			<polygon points="111.694,48.622 108.456,46.752 111.694,44.882 			"/>
		</g>
		<g>
			<polygon points="116.557,48.622 119.795,46.752 116.557,44.882 			"/>
		</g>
	</g>
</g>
<g>
	<g>
		<line fill="none" stroke="#000000" stroke-miterlimit="10" x1="110.884" y1="106.981" x2="119.047" y2="106.981"/>
		<g>
			<polygon points="111.614,109.475 107.296,106.981 111.614,104.488 			"/>
		</g>
		<g>
			<polygon points="118.318,109.475 122.635,106.981 118.318,104.488 			"/>
		</g>
	</g>
</g>
<g>
	<g>
		<line fill="none" stroke="#000000" stroke-miterlimit="10" x1="152.995" y1="106.981" x2="161.158" y2="106.981"/>
		<g>
			<polygon points="153.725,109.475 149.407,106.981 153.725,104.488 			"/>
		</g>
		<g>
			<polygon points="160.429,109.475 164.746,106.981 160.429,104.488 			"/>
		</g>
	</g>
</g>
<g>
	<g>
		<line fill="none" stroke="#000000" stroke-miterlimit="10" x1="195.107" y1="106.981" x2="203.271" y2="106.981"/>
		<g>
			<polygon points="195.837,109.475 191.52,106.981 195.837,104.488 			"/>
		</g>
		<g>
			<polygon points="202.542,109.475 206.859,106.981 202.542,104.488 			"/>
		</g>
	</g>
</g>
<g>
	<g>
		
			<line fill="none" stroke="#000000" stroke-width="0.75" stroke-miterlimit="10" x1="153.272" y1="46.466" x2="159.23" y2="46.466"/>
		<g>
			<polygon points="153.819,48.335 150.582,46.466 153.819,44.596 			"/>
		</g>
		<g>
			<polygon points="158.683,48.335 161.921,46.466 158.683,44.596 			"/>
		</g>
	</g>
</g>
<g>
	<path fill="none" d="M160.896,44.752"/>
</g>
<g>
	<g>
		
			<line fill="none" stroke="#000000" stroke-width="0.75" stroke-miterlimit="10" x1="196.186" y1="46.752" x2="202.143" y2="46.752"/>
		<g>
			<polygon points="196.733,48.622 193.495,46.752 196.733,44.882 			"/>
		</g>
		<g>
			<polygon points="201.596,48.622 204.834,46.752 201.596,44.882 			"/>
		</g>
	</g>
</g>
<polygon points="183.552,49.054 185.162,46.266 183.552,43.477 180.332,43.477 178.722,46.266 180.332,49.054 "/>
<polygon points="189.314,85.523 190.924,82.734 189.314,79.945 186.094,79.945 184.484,82.734 186.094,85.523 "/>
<polygon points="98.721,75.411 100.33,72.621 98.721,69.832 95.5,69.832 93.891,72.621 95.5,75.411 "/>
<polygon points="77.082,19.241 78.692,16.452 77.082,13.664 73.862,13.664 72.251,16.452 73.862,19.241 "/>
<polygon points="99.759,16.315 101.37,13.526 99.759,10.737 96.539,10.737 94.929,13.526 96.539,16.315 "/>
<polygon points="119.602,24.911 121.212,22.122 119.602,19.333 116.381,19.333 114.771,22.122 116.381,24.911 "/>
<polygon points="137.38,19.241 138.991,16.452 137.38,13.664 134.161,13.664 132.55,16.452 134.161,19.241 "/>
<polygon points="157.223,14.315 158.833,11.526 157.223,8.737 154.003,8.737 152.393,11.526 154.003,14.315 "/>
<polygon points="165.727,25.653 167.337,22.864 165.727,20.076 162.507,20.076 160.896,22.864 162.507,25.653 "/>
<polygon points="174.855,13.914 176.466,11.125 174.855,8.336 171.636,8.336 170.025,11.125 171.636,13.914 "/>
<polygon points="193.202,23.54 194.812,20.751 193.202,17.962 189.981,17.962 188.372,20.751 189.981,23.54 "/>
<polygon points="190.936,14.236 192.547,11.447 190.936,8.658 187.717,8.658 186.105,11.447 187.717,14.236 "/>
<polygon points="253.601,24.819 255.211,22.03 253.601,19.241 250.381,19.241 248.771,22.03 250.381,24.819 "/>
<polyline points="279.116,22.076 270.612,22.076 270.612,73.099 "/>
<polyline fill="#727171" points="38.007,70.264 46.511,70.264 46.511,19.241 "/>
<text transform="matrix(1 0 0 1 32.7554 79.9482)" font-family="'KozGoPr6N-Regular-90ms-RKSJ-H'" font-size="8">細胞外</text>
<text transform="matrix(1 0 0 1 32.7554 16.5859)" font-family="'KozGoPr6N-Regular-90ms-RKSJ-H'" font-size="8">細胞内</text>
<text transform="matrix(1 0 0 1 262.5273 79.9482)" font-family="'KozGoPr6N-Regular-90ms-RKSJ-H'" font-size="8">細胞外</text>
<text transform="matrix(1 0 0 1 262.5273 16.5859)" font-family="'KozGoPr6N-Regular-90ms-RKSJ-H'" font-size="8">細胞内</text>
<text transform="matrix(1 0 0 1 5.6602 53.9258)" font-family="'KozGoPr6N-Regular-90ms-RKSJ-H'" font-size="8">濃度勾配</text>
<text transform="matrix(1 0 0 1 15.3735 44.7236)"><tspan x="0" y="0" font-family="'ArialMT'" font-size="8.1486">Na</tspan><tspan x="10.417" y="-3.203" font-family="'ArialMT'" font-size="6.7905">+</tspan></text>
<text transform="matrix(1 0 0 1 119.5049 39.8149)"><tspan x="0" y="0" font-family="'Arial-BoldMT'" font-size="7.0546">Na</tspan><tspan x="9.018" y="-2.772" font-family="'Arial-BoldMT'" font-size="5.8788">+</tspan></text>
<text transform="matrix(1 0 0 1 282.9531 53.9258)" font-family="'KozGoPr6N-Regular-90ms-RKSJ-H'" font-size="8">濃度勾配</text>
<text transform="matrix(1 0 0 1 280.1172 44.4219)" font-family="'KozGoPr6N-Regular-90ms-RKSJ-H'" font-size="8">グルコース</text>
<text transform="matrix(1 0 0 1 136.0601 40.1621)" font-family="'KozGoPr6N-Medium-90ms-RKSJ-H'" font-size="7">グルコース</text>
<g>
	<circle fill="#727171" cx="174.185" cy="46.266" r="2.835"/>
	<text transform="matrix(1 0 0 -1 172.3984 44.1875)" fill="#FFFFFF" font-family="'ArialMT'" font-size="6">+</text>
</g>
<polygon points="140.549,49.054 142.159,46.266 140.549,43.477 137.329,43.477 135.719,46.266 137.329,49.054 "/>
<g>
	<circle fill="#727171" cx="131.182" cy="46.266" r="2.835"/>
	<text transform="matrix(1 0 0 -1 129.395 44.1875)" fill="#FFFFFF" font-family="'ArialMT'" font-size="6">+</text>
</g>
<polygon points="225.556,49.054 227.166,46.266 225.556,43.477 222.336,43.477 220.726,46.266 222.336,49.054 "/>
<g>
	<circle fill="#727171" cx="216.188" cy="46.266" r="2.835"/>
	<text transform="matrix(1 0 0 -1 214.4004 44.1875)" fill="#FFFFFF" font-family="'ArialMT'" font-size="6">+</text>
</g>
<g>
	<circle fill="#727171" cx="78.692" cy="79.384" r="2.835"/>
	<text transform="matrix(1 0 0 -1 76.9053 77.3086)" fill="#FFFFFF" font-family="'ArialMT'" font-size="6">+</text>
</g>
<g>
	<circle fill="#727171" cx="109.591" cy="83.48" r="2.835"/>
	<text transform="matrix(1 0 0 -1 107.8042 81.4063)" fill="#FFFFFF" font-family="'ArialMT'" font-size="6">+</text>
</g>
<g>
	<circle fill="#727171" cx="163.689" cy="70.924" r="2.835"/>
	<text transform="matrix(1 0 0 -1 161.9023 68.8467)" fill="#FFFFFF" font-family="'ArialMT'" font-size="6">+</text>
</g>
<g>
	<circle fill="#727171" cx="202.808" cy="67.953" r="2.835"/>
	<text transform="matrix(1 0 0 -1 201.0215 65.877)" fill="#FFFFFF" font-family="'ArialMT'" font-size="6">+</text>
</g>
<g>
	<circle fill="#727171" cx="189.242" cy="70.881" r="2.835"/>
	<text transform="matrix(1 0 0 -1 187.457 68.8047)" fill="#FFFFFF" font-family="'ArialMT'" font-size="6">+</text>
</g>
<g>
	<circle fill="#727171" cx="156.547" cy="87.611" r="2.835"/>
	<text transform="matrix(1 0 0 -1 154.7603 85.5352)" fill="#FFFFFF" font-family="'ArialMT'" font-size="6">+</text>
</g>
<g>
	<circle fill="#727171" cx="114.125" cy="12.067" r="2.835"/>
	<text transform="matrix(1 0 0 -1 112.3379 9.9883)" fill="#FFFFFF" font-family="'ArialMT'" font-size="6">+</text>
</g>
<g>
	<circle fill="#727171" cx="223.26" cy="74.336" r="2.835"/>
	<text transform="matrix(1 0 0 -1 221.4727 72.2588)" fill="#FFFFFF" font-family="'ArialMT'" font-size="6">+</text>
</g>
<g>
	<circle fill="#727171" cx="240.267" cy="82.837" r="2.835"/>
	<text transform="matrix(1 0 0 -1 238.4805 80.7617)" fill="#FFFFFF" font-family="'ArialMT'" font-size="6">+</text>
</g>
<g>
	<text transform="matrix(1 0 0 1 90.6133 110.209)" font-family="'ArialMT'" font-size="12">0</text>
	<circle fill="none" stroke="#000000" stroke-miterlimit="10" cx="93.91" cy="105.815" r="9.383"/>
</g>
<g>
	<text transform="matrix(1 0 0 1 132.6846 110.208)" font-family="'ArialMT'" font-size="12">1</text>
	<circle fill="none" stroke="#000000" stroke-miterlimit="10" cx="136.021" cy="105.814" r="9.383"/>
</g>
<g>
	<text transform="matrix(1 0 0 1 174.7969 110.209)" font-family="'ArialMT'" font-size="12">2</text>
	<circle fill="none" stroke="#000000" stroke-miterlimit="10" cx="178.133" cy="105.815" r="9.384"/>
</g>
<g>
	<text transform="matrix(1 0 0 1 216.9072 110.209)" font-family="'ArialMT'" font-size="12">3</text>
	<circle fill="none" stroke="#000000" stroke-miterlimit="10" cx="220.244" cy="105.814" r="9.384"/>
</g>
<g>
	<g>
		<polyline fill="none" stroke="#000000" stroke-miterlimit="10" points="239.634,106.981 247.102,106.981 247.102,125.148 
			63.499,125.148 63.499,106.981 72.943,106.981 		"/>
		<g>
			<polygon points="240.363,109.475 236.046,106.981 240.363,104.488 			"/>
		</g>
		<g>
			<polygon points="72.213,109.475 76.531,106.981 72.213,104.488 			"/>
		</g>
	</g>
</g>
<g>
	<g>
		<path fill="none" stroke="#000000" stroke-width="0.5" stroke-miterlimit="10" d="M142.151,71.391c0,0-1.691-1.254-3.271-5.111"/>
		<g>
			<polygon points="140.101,66.576 137.872,63.341 138.185,67.258 			"/>
		</g>
	</g>
</g>
<g>
	<g>
		<path fill="none" stroke="#000000" stroke-width="0.5" stroke-miterlimit="10" d="M127.577,71.391c0,0,5.76-0.174,6.427-16.019"/>
		<g>
			<polygon points="134.913,56.107 134.066,52.271 132.881,56.016 			"/>
		</g>
	</g>
</g>
<g>
	<g>
		<path fill="none" stroke="#000000" stroke-width="0.5" stroke-miterlimit="10" d="M219.117,35.211c0,0-0.303-4.94-2.671-9.422"/>
		<g>
			<polygon points="217.626,25.869 214.755,23.188 215.9,26.945 			"/>
		</g>
	</g>
</g>
<g>
	<g>
		<path fill="none" stroke="#000000" stroke-width="0.5" stroke-miterlimit="10" d="M221.861,35.211c0,0,0.303-4.94,2.671-9.422"/>
		<g>
			<polygon points="225.078,26.945 226.224,23.188 223.353,25.869 			"/>
		</g>
	</g>
</g>
<text transform="matrix(1 0 0 1 120.4746 79.7383)" font-family="'KozGoPr6N-Medium-90ms-RKSJ-H'" font-size="8">吸い込む</text>
<text transform="matrix(1 0 0 1 204.6123 18.2666)" font-family="'KozGoPr6N-Medium-90ms-RKSJ-H'" font-size="8">吐き出す</text>
</svg>
